<svg width="170" height="66" viewBox="0 0 170 66" fill="none" xmlns="http://www.w3.org/2000/svg">
<path d="M18.9385 46.776C18.9385 46.776 18.8025 46.861 18.5305 47.031C18.2925 47.201 17.9525 47.371 17.5105 47.541C17.1025 47.711 16.6095 47.864 16.0315 48C15.4535 48.17 14.8075 48.255 14.0935 48.255C12.8695 48.255 11.7985 47.881 10.8805 47.133C9.96254 46.385 9.50354 45.399 9.50354 44.175V22.551H5.67854V21.531H9.50354V12.3H10.5235V21.531H16.8985V22.551H10.5235V44.175C10.5915 45.161 10.9825 45.926 11.6965 46.47C12.4105 46.98 13.2095 47.235 14.0935 47.235C14.6715 47.235 15.2155 47.184 15.7255 47.082C16.2355 46.946 16.6775 46.81 17.0515 46.674C17.4595 46.504 17.7655 46.351 17.9695 46.215C18.2075 46.079 18.3435 45.994 18.3775 45.96L18.9385 46.776ZM44.2306 48H43.2106V33.261C43.2106 25.849 40.7626 22.143 35.8666 22.143C34.6426 22.143 33.4356 22.381 32.2456 22.857C31.0556 23.333 29.9506 23.979 28.9306 24.795C27.9446 25.611 27.0776 26.58 26.3296 27.702C25.5816 28.79 25.0376 29.98 24.6976 31.272V48H23.6776V10.77H24.6976V28.365C25.2416 27.277 25.9046 26.291 26.6866 25.407C27.5026 24.489 28.3866 23.724 29.3386 23.112C30.3246 22.466 31.3616 21.973 32.4496 21.633C33.5716 21.293 34.6936 21.123 35.8156 21.123C38.5696 21.123 40.6606 22.143 42.0886 24.183C43.5166 26.223 44.2306 29.249 44.2306 33.261V48ZM63.3265 48.51C61.5925 48.51 59.9435 48.153 58.3795 47.439C56.8495 46.691 55.5065 45.688 54.3505 44.43C53.1945 43.138 52.2765 41.659 51.5965 39.993C50.9165 38.293 50.5765 36.491 50.5765 34.587C50.5765 32.717 50.8995 30.966 51.5455 29.334C52.1915 27.702 53.0755 26.274 54.1975 25.05C55.3535 23.826 56.6795 22.874 58.1755 22.194C59.7055 21.48 61.3375 21.123 63.0715 21.123C64.8395 21.123 66.4885 21.48 68.0185 22.194C69.5825 22.908 70.9255 23.877 72.0475 25.101C73.2035 26.325 74.1215 27.77 74.8015 29.436C75.4815 31.102 75.8215 32.887 75.8215 34.791V35.352H51.5965C51.7325 37.052 52.1235 38.65 52.7695 40.146C53.4495 41.608 54.3165 42.883 55.3705 43.971C56.4245 45.059 57.6315 45.926 58.9915 46.572C60.3855 47.184 61.8475 47.49 63.3775 47.49C64.3975 47.49 65.3835 47.354 66.3355 47.082C67.3215 46.81 68.2395 46.436 69.0895 45.96C69.9395 45.45 70.6875 44.855 71.3335 44.175C71.9795 43.495 72.4895 42.747 72.8635 41.931L73.8325 42.186C73.4585 43.104 72.9145 43.954 72.2005 44.736C71.5205 45.484 70.7045 46.147 69.7525 46.725C68.8345 47.269 67.8145 47.694 66.6925 48C65.6045 48.34 64.4825 48.51 63.3265 48.51ZM74.7505 34.332C74.6485 32.564 74.2745 30.932 73.6285 29.436C72.9825 27.94 72.1325 26.665 71.0785 25.611C70.0585 24.523 68.8685 23.673 67.5085 23.061C66.1485 22.449 64.6865 22.143 63.1225 22.143C61.5585 22.143 60.0965 22.449 58.7365 23.061C57.3765 23.673 56.1695 24.523 55.1155 25.611C54.0955 26.699 53.2795 27.991 52.6675 29.487C52.0555 30.983 51.6985 32.598 51.5965 34.332H74.7505ZM82.4152 48V11.79H94.0432C96.8992 11.79 99.3812 12.266 101.489 13.218C103.631 14.17 105.399 15.462 106.793 17.094C108.221 18.726 109.275 20.647 109.955 22.857C110.669 25.033 111.026 27.362 111.026 29.844C111.026 32.598 110.618 35.097 109.802 37.341C109.02 39.551 107.898 41.455 106.436 43.053C104.974 44.617 103.189 45.841 101.081 46.725C98.9732 47.575 96.6272 48 94.0432 48H82.4152ZM110.006 29.844C110.006 27.362 109.649 25.084 108.935 23.01C108.255 20.936 107.235 19.151 105.875 17.655C104.515 16.125 102.832 14.935 100.826 14.085C98.8542 13.235 96.5932 12.81 94.0432 12.81H83.4352V46.98H94.0432C96.6612 46.98 98.9562 46.555 100.928 45.705C102.934 44.821 104.6 43.614 105.926 42.084C107.286 40.554 108.306 38.752 108.986 36.678C109.666 34.57 110.006 32.292 110.006 29.844ZM129.23 22.551C126.714 22.653 124.538 23.469 122.702 24.999C120.9 26.529 119.642 28.62 118.928 31.272V48H117.908V21.531H118.928V28.365C119.846 26.495 121.07 24.965 122.6 23.775C124.164 22.551 125.813 21.837 127.547 21.633C127.887 21.599 128.193 21.582 128.465 21.582C128.771 21.548 129.026 21.531 129.23 21.531V22.551ZM143.708 48.51C141.974 48.51 140.342 48.153 138.812 47.439C137.282 46.691 135.939 45.705 134.783 44.481C133.661 43.223 132.76 41.761 132.08 40.095C131.434 38.429 131.111 36.678 131.111 34.842C131.111 32.972 131.434 31.221 132.08 29.589C132.76 27.923 133.678 26.461 134.834 25.203C135.99 23.945 137.333 22.959 138.863 22.245C140.393 21.497 142.008 21.123 143.708 21.123C145.408 21.123 147.023 21.497 148.553 22.245C150.083 22.959 151.409 23.945 152.531 25.203C153.687 26.461 154.605 27.923 155.285 29.589C155.965 31.221 156.305 32.972 156.305 34.842C156.305 36.678 155.965 38.429 155.285 40.095C154.639 41.761 153.738 43.223 152.582 44.481C151.46 45.705 150.134 46.691 148.604 47.439C147.074 48.153 145.442 48.51 143.708 48.51ZM132.131 34.944C132.131 36.644 132.437 38.259 133.049 39.789C133.661 41.319 134.477 42.662 135.497 43.818C136.551 44.94 137.775 45.841 139.169 46.521C140.563 47.167 142.059 47.49 143.657 47.49C145.221 47.49 146.7 47.15 148.094 46.47C149.522 45.79 150.763 44.872 151.817 43.716C152.905 42.56 153.755 41.217 154.367 39.687C154.979 38.157 155.285 36.525 155.285 34.791C155.285 33.091 154.979 31.476 154.367 29.946C153.755 28.416 152.922 27.073 151.868 25.917C150.814 24.761 149.573 23.843 148.145 23.163C146.751 22.483 145.272 22.143 143.708 22.143C142.144 22.143 140.648 22.483 139.22 23.163C137.826 23.843 136.602 24.778 135.548 25.968C134.494 27.124 133.661 28.484 133.049 30.048C132.437 31.578 132.131 33.21 132.131 34.944Z" fill="#333333"/>
<path d="M23.9385 52.776C23.9385 52.776 23.8025 52.861 23.5305 53.031C23.2925 53.201 22.9525 53.371 22.5105 53.541C22.1025 53.711 21.6095 53.864 21.0315 54C20.4535 54.17 19.8075 54.255 19.0935 54.255C17.8695 54.255 16.7985 53.881 15.8805 53.133C14.9625 52.385 14.5035 51.399 14.5035 50.175V28.551H10.6785V27.531H14.5035V18.3H15.5235V27.531H21.8985V28.551H15.5235V50.175C15.5915 51.161 15.9825 51.926 16.6965 52.47C17.4105 52.98 18.2095 53.235 19.0935 53.235C19.6715 53.235 20.2155 53.184 20.7255 53.082C21.2355 52.946 21.6775 52.81 22.0515 52.674C22.4595 52.504 22.7655 52.351 22.9695 52.215C23.2075 52.079 23.3435 51.994 23.3775 51.96L23.9385 52.776ZM49.2306 54H48.2106V39.261C48.2106 31.849 45.7626 28.143 40.8666 28.143C39.6426 28.143 38.4356 28.381 37.2456 28.857C36.0556 29.333 34.9506 29.979 33.9306 30.795C32.9446 31.611 32.0776 32.58 31.3296 33.702C30.5816 34.79 30.0376 35.98 29.6976 37.272V54H28.6776V16.77H29.6976V34.365C30.2416 33.277 30.9046 32.291 31.6866 31.407C32.5026 30.489 33.3866 29.724 34.3386 29.112C35.3246 28.466 36.3616 27.973 37.4496 27.633C38.5716 27.293 39.6936 27.123 40.8156 27.123C43.5696 27.123 45.6606 28.143 47.0886 30.183C48.5166 32.223 49.2306 35.249 49.2306 39.261V54ZM68.3265 54.51C66.5925 54.51 64.9435 54.153 63.3795 53.439C61.8495 52.691 60.5065 51.688 59.3505 50.43C58.1945 49.138 57.2765 47.659 56.5965 45.993C55.9165 44.293 55.5765 42.491 55.5765 40.587C55.5765 38.717 55.8995 36.966 56.5455 35.334C57.1915 33.702 58.0755 32.274 59.1975 31.05C60.3535 29.826 61.6795 28.874 63.1755 28.194C64.7055 27.48 66.3375 27.123 68.0715 27.123C69.8395 27.123 71.4885 27.48 73.0185 28.194C74.5825 28.908 75.9255 29.877 77.0475 31.101C78.2035 32.325 79.1215 33.77 79.8015 35.436C80.4815 37.102 80.8215 38.887 80.8215 40.791V41.352H56.5965C56.7325 43.052 57.1235 44.65 57.7695 46.146C58.4495 47.608 59.3165 48.883 60.3705 49.971C61.4245 51.059 62.6315 51.926 63.9915 52.572C65.3855 53.184 66.8475 53.49 68.3775 53.49C69.3975 53.49 70.3835 53.354 71.3355 53.082C72.3215 52.81 73.2395 52.436 74.0895 51.96C74.9395 51.45 75.6875 50.855 76.3335 50.175C76.9795 49.495 77.4895 48.747 77.8635 47.931L78.8325 48.186C78.4585 49.104 77.9145 49.954 77.2005 50.736C76.5205 51.484 75.7045 52.147 74.7525 52.725C73.8345 53.269 72.8145 53.694 71.6925 54C70.6045 54.34 69.4825 54.51 68.3265 54.51ZM79.7505 40.332C79.6485 38.564 79.2745 36.932 78.6285 35.436C77.9825 33.94 77.1325 32.665 76.0785 31.611C75.0585 30.523 73.8685 29.673 72.5085 29.061C71.1485 28.449 69.6865 28.143 68.1225 28.143C66.5585 28.143 65.0965 28.449 63.7365 29.061C62.3765 29.673 61.1695 30.523 60.1155 31.611C59.0955 32.699 58.2795 33.991 57.6675 35.487C57.0555 36.983 56.6985 38.598 56.5965 40.332H79.7505ZM87.4152 54V17.79H99.0432C101.899 17.79 104.381 18.266 106.489 19.218C108.631 20.17 110.399 21.462 111.793 23.094C113.221 24.726 114.275 26.647 114.955 28.857C115.669 31.033 116.026 33.362 116.026 35.844C116.026 38.598 115.618 41.097 114.802 43.341C114.02 45.551 112.898 47.455 111.436 49.053C109.974 50.617 108.189 51.841 106.081 52.725C103.973 53.575 101.627 54 99.0432 54H87.4152ZM115.006 35.844C115.006 33.362 114.649 31.084 113.935 29.01C113.255 26.936 112.235 25.151 110.875 23.655C109.515 22.125 107.832 20.935 105.826 20.085C103.854 19.235 101.593 18.81 99.0432 18.81H88.4352V52.98H99.0432C101.661 52.98 103.956 52.555 105.928 51.705C107.934 50.821 109.6 49.614 110.926 48.084C112.286 46.554 113.306 44.752 113.986 42.678C114.666 40.57 115.006 38.292 115.006 35.844ZM134.23 28.551C131.714 28.653 129.538 29.469 127.702 30.999C125.9 32.529 124.642 34.62 123.928 37.272V54H122.908V27.531H123.928V34.365C124.846 32.495 126.07 30.965 127.6 29.775C129.164 28.551 130.813 27.837 132.547 27.633C132.887 27.599 133.193 27.582 133.465 27.582C133.771 27.548 134.026 27.531 134.23 27.531V28.551ZM148.708 54.51C146.974 54.51 145.342 54.153 143.812 53.439C142.282 52.691 140.939 51.705 139.783 50.481C138.661 49.223 137.76 47.761 137.08 46.095C136.434 44.429 136.111 42.678 136.111 40.842C136.111 38.972 136.434 37.221 137.08 35.589C137.76 33.923 138.678 32.461 139.834 31.203C140.99 29.945 142.333 28.959 143.863 28.245C145.393 27.497 147.008 27.123 148.708 27.123C150.408 27.123 152.023 27.497 153.553 28.245C155.083 28.959 156.409 29.945 157.531 31.203C158.687 32.461 159.605 33.923 160.285 35.589C160.965 37.221 161.305 38.972 161.305 40.842C161.305 42.678 160.965 44.429 160.285 46.095C159.639 47.761 158.738 49.223 157.582 50.481C156.46 51.705 155.134 52.691 153.604 53.439C152.074 54.153 150.442 54.51 148.708 54.51ZM137.131 40.944C137.131 42.644 137.437 44.259 138.049 45.789C138.661 47.319 139.477 48.662 140.497 49.818C141.551 50.94 142.775 51.841 144.169 52.521C145.563 53.167 147.059 53.49 148.657 53.49C150.221 53.49 151.7 53.15 153.094 52.47C154.522 51.79 155.763 50.872 156.817 49.716C157.905 48.56 158.755 47.217 159.367 45.687C159.979 44.157 160.285 42.525 160.285 40.791C160.285 39.091 159.979 37.476 159.367 35.946C158.755 34.416 157.922 33.073 156.868 31.917C155.814 30.761 154.573 29.843 153.145 29.163C151.751 28.483 150.272 28.143 148.708 28.143C147.144 28.143 145.648 28.483 144.22 29.163C142.826 29.843 141.602 30.778 140.548 31.968C139.494 33.124 138.661 34.484 138.049 36.048C137.437 37.578 137.131 39.21 137.131 40.944Z" fill="#333333" fill-opacity="0.1"/>
<line x1="5" y1="62.5" x2="170" y2="62.5" stroke="#101101" stroke-opacity="0.4"/>
<line x1="169.5" y1="62" x2="169.5" y2="9" stroke="#101101" stroke-opacity="0.4"/>
</svg>
