<svg width="59" height="77" viewBox="0 0 59 77" fill="none" xmlns="http://www.w3.org/2000/svg">
<path d="M14.0655 46.776C14.0655 46.776 13.9295 46.861 13.6575 47.031C13.4195 47.201 13.0795 47.371 12.6375 47.541C12.2295 47.711 11.7365 47.864 11.1585 48C10.5805 48.17 9.93449 48.255 9.22049 48.255C7.99649 48.255 6.92549 47.881 6.00749 47.133C5.08949 46.385 4.63049 45.399 4.63049 44.175V22.551H0.805492V21.531H4.63049V12.3H5.65049V21.531H12.0255V22.551H5.65049V44.175C5.71849 45.161 6.10949 45.926 6.82349 46.47C7.53749 46.98 8.33649 47.235 9.22049 47.235C9.79849 47.235 10.3425 47.184 10.8525 47.082C11.3625 46.946 11.8045 46.81 12.1785 46.674C12.5865 46.504 12.8925 46.351 13.0965 46.215C13.3345 46.079 13.4705 45.994 13.5045 45.96L14.0655 46.776Z" fill="#333333"/>
<path d="M18.4201 65V28.79H30.0481C32.9041 28.79 35.3861 29.266 37.4941 30.218C39.6361 31.17 41.4041 32.462 42.7981 34.094C44.2261 35.726 45.2801 37.647 45.9601 39.857C46.6741 42.033 47.0311 44.362 47.0311 46.844C47.0311 49.598 46.6231 52.097 45.8071 54.341C45.0251 56.551 43.9031 58.455 42.4411 60.053C40.9791 61.617 39.1941 62.841 37.0861 63.725C34.9781 64.575 32.6321 65 30.0481 65H18.4201ZM46.0111 46.844C46.0111 44.362 45.6541 42.084 44.9401 40.01C44.2601 37.936 43.2401 36.151 41.8801 34.655C40.5201 33.125 38.8371 31.935 36.8311 31.085C34.8591 30.235 32.5981 29.81 30.0481 29.81H19.4401V63.98H30.0481C32.6661 63.98 34.9611 63.555 36.9331 62.705C38.9391 61.821 40.6051 60.614 41.9311 59.084C43.2911 57.554 44.3111 55.752 44.9911 53.678C45.6711 51.57 46.0111 49.292 46.0111 46.844Z" fill="#333333"/>
<path d="M17.0655 50.776C17.0655 50.776 16.9295 50.861 16.6575 51.031C16.4195 51.201 16.0795 51.371 15.6375 51.541C15.2295 51.711 14.7365 51.864 14.1585 52C13.5805 52.17 12.9345 52.255 12.2205 52.255C10.9965 52.255 9.92549 51.881 9.00749 51.133C8.08949 50.385 7.63049 49.399 7.63049 48.175V26.551H3.80549V25.531H7.63049V16.3H8.65049V25.531H15.0255V26.551H8.65049V48.175C8.71849 49.161 9.10949 49.926 9.82349 50.47C10.5375 50.98 11.3365 51.235 12.2205 51.235C12.7985 51.235 13.3425 51.184 13.8525 51.082C14.3625 50.946 14.8045 50.81 15.1785 50.674C15.5865 50.504 15.8925 50.351 16.0965 50.215C16.3345 50.079 16.4705 49.994 16.5045 49.96L17.0655 50.776Z" fill="#333333" fill-opacity="0.1"/>
<path d="M21.4201 69V32.79H33.0481C35.9041 32.79 38.3861 33.266 40.4941 34.218C42.6361 35.17 44.4041 36.462 45.7981 38.094C47.2261 39.726 48.2801 41.647 48.9601 43.857C49.6741 46.033 50.0311 48.362 50.0311 50.844C50.0311 53.598 49.6231 56.097 48.8071 58.341C48.0251 60.551 46.9031 62.455 45.4411 64.053C43.9791 65.617 42.1941 66.841 40.0861 67.725C37.9781 68.575 35.6321 69 33.0481 69H21.4201ZM49.0111 50.844C49.0111 48.362 48.6541 46.084 47.9401 44.01C47.2601 41.936 46.2401 40.151 44.8801 38.655C43.5201 37.125 41.8371 35.935 39.8311 35.085C37.8591 34.235 35.5981 33.81 33.0481 33.81H22.4401V67.98H33.0481C35.6661 67.98 37.9611 67.555 39.9331 66.705C41.9391 65.821 43.6051 64.614 44.9311 63.084C46.2911 61.554 47.3111 59.752 47.9911 57.678C48.6711 55.57 49.0111 53.292 49.0111 50.844Z" fill="#333333" fill-opacity="0.1"/>
</svg>
